<?xml version="1.0" encoding="UTF-8" standalone="no"?><svg xmlns="http://www.w3.org/2000/svg" xmlns:xlink="http://www.w3.org/1999/xlink" contentScriptType="application/ecmascript" contentStyleType="text/css" height="250px" preserveAspectRatio="none" style="width:255px;height:250px;" version="1.1" viewBox="0 0 255 250" width="255px" zoomAndPan="magnify"><defs><filter height="300%" id="fp4ocno3fpsnq" width="300%" x="-1" y="-1"><feGaussianBlur result="blurOut" stdDeviation="2.0"/><feColorMatrix in="blurOut" result="blurOut2" type="matrix" values="0 0 0 0 0 0 0 0 0 0 0 0 0 0 0 0 0 0 .4 0"/><feOffset dx="4.0" dy="4.0" in="blurOut2" result="blurOut3"/><feBlend in="SourceGraphic" in2="blurOut3" mode="normal"/></filter></defs><g><!--class Test--><rect fill="#FEFECE" filter="url(#fp4ocno3fpsnq)" height="70.0234" id="Test" style="stroke: #A80036; stroke-width: 1.5;" width="107" x="82" y="8"/><ellipse cx="97" cy="28.0938" fill="#A9DCDF" rx="11" ry="11" style="stroke: #A80036; stroke-width: 1.0;"/><path d="M99.1875,29.8594 L95.0469,29.8594 L94.625,30.8906 L95.0469,30.8906 Q95.6563,30.8906 95.9219,31.125 Q96.1875,31.3594 96.1875,31.75 Q96.1875,32.125 95.9219,32.3594 Q95.6563,32.5938 95.0469,32.5938 L92.75,32.5938 Q92.1406,32.5938 91.8828,32.3594 Q91.625,32.125 91.625,31.7344 Q91.625,31.3594 91.8984,31.1172 Q92.1719,30.875 92.7969,30.8906 L95.4688,24.2344 L94.3594,24.2344 Q93.75,24.2344 93.4844,24 Q93.2188,23.7656 93.2188,23.375 Q93.2188,23 93.4844,22.7656 Q93.75,22.5313 94.3594,22.5313 L98.0313,22.5313 L101.4219,30.8906 Q102.0156,30.8906 102.2031,31.0313 Q102.5938,31.2969 102.5938,31.75 Q102.5938,32.125 102.3359,32.3594 Q102.0781,32.5938 101.4688,32.5938 L99.1719,32.5938 Q98.5625,32.5938 98.2969,32.3594 Q98.0313,32.125 98.0313,31.7344 Q98.0313,31.3594 98.2969,31.125 Q98.5625,30.8906 99.1719,30.8906 L99.5938,30.8906 L99.1875,29.8594 Z M98.4688,28.1563 L97.1094,24.7813 L95.7344,28.1563 L98.4688,28.1563 Z "/><text fill="#000000" font-family="sans-serif" font-size="12" font-style="italic" lengthAdjust="spacingAndGlyphs" textLength="79" x="109" y="25.457">«Component»</text><text fill="#000000" font-family="sans-serif" font-size="12" font-style="italic" lengthAdjust="spacingAndGlyphs" textLength="23" x="137" y="40.5508">Test</text><line style="stroke: #A80036; stroke-width: 1.5;" x1="83" x2="188" y1="48.1875" y2="48.1875"/><line style="stroke: #A80036; stroke-width: 1.5;" x1="83" x2="188" y1="56.1875" y2="56.1875"/><ellipse cx="93" cy="68.6055" fill="#84BE84" rx="3" ry="3" style="stroke: #038048; stroke-width: 1.0;"/><text fill="#000000" font-family="sans-serif" font-size="11" font-style="italic" lengthAdjust="spacingAndGlyphs" textLength="78" x="102" y="71.6064">run(TestResult)</text><!--class TestCase--><rect fill="#FEFECE" filter="url(#fp4ocno3fpsnq)" height="70.0234" id="TestCase" style="stroke: #A80036; stroke-width: 1.5;" width="101" x="6" y="163"/><ellipse cx="27.75" cy="183.0938" fill="#ADD1B2" rx="11" ry="11" style="stroke: #A80036; stroke-width: 1.0;"/><path d="M30.5156,178.9688 Q30.6719,178.75 30.8594,178.6406 Q31.0469,178.5313 31.2656,178.5313 Q31.6406,178.5313 31.875,178.7891 Q32.1094,179.0469 32.1094,179.6563 L32.1094,181.1094 Q32.1094,181.7188 31.875,181.9844 Q31.6406,182.25 31.2656,182.25 Q30.9219,182.25 30.7188,182.0469 Q30.5156,181.8594 30.4063,181.3438 Q30.3594,180.9844 30.1719,180.7969 Q29.8438,180.4219 29.2344,180.2031 Q28.625,179.9844 28,179.9844 Q27.2344,179.9844 26.6016,180.3125 Q25.9688,180.6406 25.4766,181.3906 Q24.9844,182.1406 24.9844,183.1719 L24.9844,184.2656 Q24.9844,185.5 25.875,186.3203 Q26.7656,187.1406 28.3594,187.1406 Q29.2969,187.1406 29.9531,186.8906 Q30.3438,186.7344 30.7656,186.2969 Q31.0313,186.0313 31.1797,185.9531 Q31.3281,185.875 31.5313,185.875 Q31.8594,185.875 32.1172,186.1328 Q32.375,186.3906 32.375,186.7344 Q32.375,187.0781 32.0313,187.4844 Q31.5313,188.0625 30.7344,188.3906 Q29.6563,188.8438 28.3594,188.8438 Q26.8438,188.8438 25.6406,188.2188 Q24.6563,187.7188 23.9688,186.6484 Q23.2813,185.5781 23.2813,184.2969 L23.2813,183.1406 Q23.2813,181.8125 23.8984,180.6641 Q24.5156,179.5156 25.6094,178.8984 Q26.7031,178.2813 27.9375,178.2813 Q28.6719,178.2813 29.3203,178.4453 Q29.9688,178.6094 30.5156,178.9688 Z "/><text fill="#000000" font-family="sans-serif" font-size="12" font-style="italic" lengthAdjust="spacingAndGlyphs" textLength="38" x="51.25" y="180.457">«Leaf»</text><text fill="#000000" font-family="sans-serif" font-size="12" lengthAdjust="spacingAndGlyphs" textLength="54" x="43.25" y="195.5508">TestCase</text><line style="stroke: #A80036; stroke-width: 1.5;" x1="7" x2="106" y1="203.1875" y2="203.1875"/><line style="stroke: #A80036; stroke-width: 1.5;" x1="7" x2="106" y1="211.1875" y2="211.1875"/><ellipse cx="17" cy="223.6055" fill="#84BE84" rx="3" ry="3" style="stroke: #038048; stroke-width: 1.0;"/><text fill="#000000" font-family="sans-serif" font-size="11" lengthAdjust="spacingAndGlyphs" textLength="75" x="26" y="226.6064">run(TestResult)</text><!--class TestSuite--><rect fill="#FEFECE" filter="url(#fp4ocno3fpsnq)" height="83.8594" id="TestSuite" style="stroke: #A80036; stroke-width: 1.5;" width="102" x="142.5" y="156"/><ellipse cx="157.5" cy="176.0938" fill="#ADD1B2" rx="11" ry="11" style="stroke: #A80036; stroke-width: 1.0;"/><path d="M160.2656,171.9688 Q160.4219,171.75 160.6094,171.6406 Q160.7969,171.5313 161.0156,171.5313 Q161.3906,171.5313 161.625,171.7891 Q161.8594,172.0469 161.8594,172.6563 L161.8594,174.1094 Q161.8594,174.7188 161.625,174.9844 Q161.3906,175.25 161.0156,175.25 Q160.6719,175.25 160.4688,175.0469 Q160.2656,174.8594 160.1563,174.3438 Q160.1094,173.9844 159.9219,173.7969 Q159.5938,173.4219 158.9844,173.2031 Q158.375,172.9844 157.75,172.9844 Q156.9844,172.9844 156.3516,173.3125 Q155.7188,173.6406 155.2266,174.3906 Q154.7344,175.1406 154.7344,176.1719 L154.7344,177.2656 Q154.7344,178.5 155.625,179.3203 Q156.5156,180.1406 158.1094,180.1406 Q159.0469,180.1406 159.7031,179.8906 Q160.0938,179.7344 160.5156,179.2969 Q160.7813,179.0313 160.9297,178.9531 Q161.0781,178.875 161.2813,178.875 Q161.6094,178.875 161.8672,179.1328 Q162.125,179.3906 162.125,179.7344 Q162.125,180.0781 161.7813,180.4844 Q161.2813,181.0625 160.4844,181.3906 Q159.4063,181.8438 158.1094,181.8438 Q156.5938,181.8438 155.3906,181.2188 Q154.4063,180.7188 153.7188,179.6484 Q153.0313,178.5781 153.0313,177.2969 L153.0313,176.1406 Q153.0313,174.8125 153.6484,173.6641 Q154.2656,172.5156 155.3594,171.8984 Q156.4531,171.2813 157.6875,171.2813 Q158.4219,171.2813 159.0703,171.4453 Q159.7188,171.6094 160.2656,171.9688 Z "/><text fill="#000000" font-family="sans-serif" font-size="12" font-style="italic" lengthAdjust="spacingAndGlyphs" textLength="74" x="169.5" y="173.457">«Composite»</text><text fill="#000000" font-family="sans-serif" font-size="12" lengthAdjust="spacingAndGlyphs" textLength="52" x="180.5" y="188.5508">TestSuite</text><line style="stroke: #A80036; stroke-width: 1.5;" x1="143.5" x2="243.5" y1="196.1875" y2="196.1875"/><line style="stroke: #A80036; stroke-width: 1.5;" x1="143.5" x2="243.5" y1="204.1875" y2="204.1875"/><ellipse cx="153.5" cy="216.6055" fill="#84BE84" rx="3" ry="3" style="stroke: #038048; stroke-width: 1.0;"/><text fill="#000000" font-family="sans-serif" font-size="11" lengthAdjust="spacingAndGlyphs" textLength="75" x="162.5" y="219.6064">run(TestResult)</text><text fill="#000000" font-family="sans-serif" font-size="11" lengthAdjust="spacingAndGlyphs" textLength="47" x="162.5" y="233.4424">add(Test)</text><!--link Test to TestCase--><path d="M108.5,96.291 C97.1535,118.266 84.2729,143.212 74.17,162.7784 " fill="none" id="Test-TestCase" style="stroke: #A80036; stroke-width: 1.0;"/><polygon fill="none" points="102.3752,92.896,117.771,78.336,114.815,99.319,102.3752,92.896" style="stroke: #A80036; stroke-width: 1.0;"/><!--link Test to TestSuite--><path d="M148.165,97.61 C150.91,107.176 154.041,116.967 157.5,126 C161.305,135.938 166.079,146.321 170.893,155.9822 " fill="none" id="Test-TestSuite" style="stroke: #A80036; stroke-width: 1.0;"/><polygon fill="none" points="141.329,99.141,142.948,78.014,154.858,95.54,141.329,99.141" style="stroke: #A80036; stroke-width: 1.0;"/><!--link TestSuite to Test--><path d="M173.328,143.7872 C166.787,126.532 159.583,107.53 153.233,90.78 " fill="none" id="TestSuite-Test" style="stroke: #A80036; stroke-width: 1.0;"/><polygon fill="#A80036" points="148.516,78.336,147.9663,88.1695,150.2885,83.0113,155.4468,85.3335,148.516,78.336" style="stroke: #A80036; stroke-width: 1.0;"/><line style="stroke: #A80036; stroke-width: 1.0;" x1="150.2885" x2="153.1245" y1="83.0113" y2="90.492"/><polygon fill="#FFFFFF" points="177.952,155.9855,179.5654,148.9572,173.6983,144.7647,172.0849,151.793,177.952,155.9855" style="stroke: #A80036; stroke-width: 1.0;"/><text fill="#000000" font-family="sans-serif" font-size="13" lengthAdjust="spacingAndGlyphs" textLength="29" x="167.5" y="122.4951">tests</text><!--
@startuml
abstract class Test <<Component>> {
+ {abstract}run(TestResult)
}

class TestCase <<Leaf>> {
+ run(TestResult)
}

class TestSuite <<Composite>> {
+ run(TestResult)
add(Test)
}

Test <|-down- TestCase
Test <|-down- TestSuite
TestSuite o- -> Test : tests
@enduml

PlantUML version 1.2019.05(Sat Apr 20 18:45:36 CEST 2019)
(GPL source distribution)
Java Runtime: OpenJDK Runtime Environment
JVM: OpenJDK 64-Bit Server VM
Java Version: 1.8.0_222-b10
Operating System: Windows 10
OS Version: 10.0
Default Encoding: windows-1252
Language: es
Country: ES
--></g></svg>